Coordinates
version=1
nRows=14
nColumns=33
inDegrees=yes

Units are S.I. units (second, meters, Newtons, ...)
Angles are in degrees.

endheader
time	ground_thorax_rot_x	ground_thorax_rot_y	ground_thorax_rot_z	ground_thorax_tx	ground_thorax_ty	ground_thorax_tz	clav_prot_r	clav_elev_r	scapula_abduction_r	scapula_elevation_r	scapula_upward_rot_r	scapula_winging_r	shoulder_elv_r	plane_of_elev_r	axial_rot_r	elbow_flexion_r	pro_sup_r	wrist_flex_r	wrist_dev_r	clav_prot_l	clav_elev_l	scapula_abduction_l	scapula_elevation_l	scapula_upward_rot_l	scapula_winging_l	shoulder_elv_l	plane_of_elev_l	axial_rot_l	elbow_flexion_l	pro_sup_l	wrist_flex_l	wrist_dev_l
      8.44000000	     38.27718240	      0.97751012	      7.55628957	   -143.87399089	    895.23020444	     -4.21962880	     13.68619002	     40.72457557	     42.46324741	     45.00000000	    -26.49520609	    631.04803687	    788.80774263	     32.50946756	     61.80795127	   1099.04230046	     81.89945973	     18.59987500	      3.25757491	     10.00652386	    -45.00000000	    -43.52773495	     45.00000000	    -24.52323176	  -2421.86350555	  -4602.48372818	     19.54392645	    -48.23234762	   1089.85458893	     19.92716655	     11.37767536	    -22.97225810
      8.45000000	     38.17740924	      1.10303831	      7.64154385	   -140.11059753	    893.07333521	     -3.81862793	     12.56580589	     40.51929617	     42.48634824	     45.00000000	    -26.28476977	    630.98115475	    788.73329698	     32.86745334	     61.19923769	   1099.14514487	     82.59046737	     18.70343114	      3.32192388	     10.35298764	    -45.00000000	    -43.63680831	     45.00000000	    -24.83334780	  -2422.14851697	  -4602.81512731	     19.90391272	    -47.92650103	   1089.58986163	     17.78660385	     11.30644515	    -22.66732627
      8.46000000	     38.06381697	      1.03775989	      7.52197115	   -136.29994655	    890.65992459	     -3.37111777	     13.16664924	     40.87766368	     42.72917308	     45.00000000	    -25.68297121	    630.99698546	    788.51823957	     32.88255050	     60.75035691	   1099.15068552	     83.29216724	     18.56290710	      3.24536893	      9.99888520	    -45.00000000	    -43.93761139	     45.00000000	    -23.89215536	  -2422.45398858	  -4603.07314996	     19.79200134	    -47.34511496	   1089.44020841	     15.60802374	     11.96653085	    -22.51625068
      8.47000000	     37.95755902	      0.81248240	      7.38886374	   -132.46475094	    888.00954612	     -2.88526378	     13.77011023	     41.24562571	     43.12321036	     45.00000000	    -24.75013992	    631.20697690	    788.22563477	     32.56682029	     60.46012486	   1099.15667573	     84.05306641	     18.42269215	      3.16708610	      9.57771355	    -45.00000000	    -44.14079602	     45.00000000	    -22.42224542	  -2422.66220383	  -4603.45921199	     19.60156282	    -47.08265059	   1089.14704266	     13.35485225	     12.63127428	    -22.26150387
      8.48000000	     37.87524200	      0.59840452	      7.21982894	   -128.60786671	    885.12699848	     -2.36877867	     13.87360567	     41.40037109	     43.41107404	     45.00000000	    -24.02771672	    631.41044922	    788.04457663	     32.40530489	     60.04529890	   1099.21382923	     84.82266990	     18.34671969	      3.14460977	      9.34778860	    -45.00000000	    -44.32004886	     45.00000000	    -21.34541541	  -2422.88170791	  -4603.91258236	     19.57084237	    -47.08847684	   1088.83541861	     11.26123633	     13.01683184	    -21.95154554
      8.49000000	     37.75757516	      0.63097441	      7.23914406	   -124.74180026	    882.02046767	     -1.83283928	     14.02155773	     41.58377762	     43.60026568	     45.00000000	    -23.70356512	    631.52918134	    787.80074798	     32.43053692	     59.47669059	   1099.23337330	     85.42127209	     18.26671616	      3.12125942	      9.23738537	    -45.00000000	    -44.51114620	     45.00000000	    -20.94354297	  -2423.20025558	  -4604.26341054	     19.56312433	    -46.73245156	   1088.66371757	      9.69853424	     13.31767755	    -21.69317683
      8.50000000	     37.49928390	      1.72632541	      8.29628713	   -120.87038229	    878.69307110	     -1.28698658	     11.62743975	     40.88556302	     43.36685041	     45.00000000	    -24.17643250	    632.20318925	    787.86540095	     31.93970793	     58.75097182	   1099.25568439	     85.72678441	     18.35087270	      3.24144813	      9.75266107	    -45.00000000	    -43.80585154	     45.00000000	    -22.87842094	  -2423.69123616	  -4604.49511266	     20.05936027	    -46.85537533	   1088.55937800	      8.85617191	     12.50420424	    -21.46591597
      8.51000000	     37.60495896	      0.53833652	      7.06423382	   -117.00476349	    875.14816007	     -0.73996798	     14.21209384	     41.99183082	     44.00296422	     45.00000000	    -22.81623832	    631.77554460	    787.19172123	     32.43701807	     58.56558949	   1099.19217204	     86.01549136	     18.16167316	      3.15141675	      8.99270990	    -45.00000000	    -44.95408212	     45.00000000	    -19.98061217	  -2423.83745728	  -4605.14086658	     19.60868740	    -45.75706042	   1088.31093399	      7.86192206	     13.86532637	    -21.22940147
      8.52000000	     37.54088252	      0.63547478	      7.11682023	   -113.13846053	    871.39405968	     -0.19529944	     13.99815795	     41.99718995	     44.05629033	     45.00000000	    -22.61913425	    631.99494820	    786.94878195	     32.54521535	     58.08966952	   1099.15617593	     86.14656519	     18.16757389	      3.21801721	      8.90750379	    -45.00000000	    -45.00000000	     45.00000000	    -20.04498304	  -2424.22769440	  -4605.53030340	     19.68300592	    -45.74329222	   1088.19544802	      7.23157535	     13.82444184	    -21.02152918
      8.53000000	     37.47893118	      0.74113897	      7.23785180	   -109.27671254	    867.44305258	      0.34672202	     13.83126136	     42.02978747	     44.15220910	     45.00000000	    -22.62233521	    632.16106249	    786.59010813	     32.74805889	     57.56649622	   1099.09084562	     86.10492710	     18.15733604	      3.29641430	      8.85942093	    -45.00000000	    -45.00000000	     45.00000000	    -20.11736531	  -2424.55228636	  -4605.97144028	     19.78054040	    -45.56053071	   1088.06454760	      6.72280432	     13.85006699	    -20.81372860
      8.54000000	     37.44910654	      0.54766716	      7.15035005	   -105.41708952	    863.30783781	      0.89136221	     14.46845229	     42.32155518	     44.47927269	     45.00000000	    -22.14182001	    632.65489616	    786.29233280	     32.37412353	     56.71478553	   1098.96785544	     85.83761294	     18.18277894	      3.36260795	      8.57921548	    -45.00000000	    -45.00000000	     45.00000000	    -19.21997133	  -2424.91087822	  -4606.54435887	     19.61954751	    -45.04923277	   1087.77285725	      6.31268220	     14.23601697	    -20.55978366
      8.55000000	     37.46647770	      0.47485441	      7.08345690	   -101.56838437	    859.02029012	      1.44416457	     14.64288490	     42.44141936	     44.68132123	     45.00000000	    -21.91393926	    633.01534308	    786.02117600	     32.27876961	     56.06102820	   1098.85984516	     85.27604473	     18.24833090	      3.48292745	      8.41503315	    -45.00000000	    -45.00000000	     45.00000000	    -18.98524456	  -2425.31801712	  -4607.08614052	     19.64629884	    -44.71678577	   1087.57727412	      6.01400507	     14.41657393	    -20.33809231
      8.56000000	     37.43940447	      0.61316392	      7.18452192	    -97.73387706	    854.60847581	      2.01241123	     14.81446246	     42.54507731	     44.71613329	     45.00000000	    -21.93655229	    633.39424422	    785.66268750	     32.30098677	     55.36437446	   1098.66406462	     84.45831322	     18.32475060	      3.64079506	      8.32556983	    -45.00000000	    -45.00000000	     45.00000000	    -19.15183814	  -2425.80076803	  -4607.56998027	     19.69159356	    -44.19166827	   1087.36035037	      5.84117566	     14.54351658	    -20.11777395
      8.57000000	     37.40423090	      1.16763523	      7.66787730	    -93.92452627	    850.11263155	      2.59964931	     14.42658979	     42.35943779	     44.49973969	     45.00000000	    -23.01286291	    633.67294248	    785.45689479	     32.91949488	     54.61904347	   1098.48925901	     83.53164160	     18.42816298	      3.85630817	      8.53220902	    -45.00000000	    -45.00000000	     45.00000000	    -20.64529069	  -2426.27964533	  -4607.96076836	     20.03566757	    -43.93924800	   1087.29651006	      5.84031987	     14.34288590	    -19.96996667
